<svg width="940" height="393" viewBox="0 0 940 393" fill="none" xmlns="http://www.w3.org/2000/svg">
<path d="M204.159 188.118V198.464L219.566 182.885V172.657L204.159 188.118Z" fill="#D33607"/>
<path d="M193.611 234.618C193.611 234.855 193.611 235.093 193.492 235.331C191.833 235.807 190.292 236.758 189.225 238.066L167.062 224.628C167.537 223.676 167.774 222.606 167.774 221.417C167.774 219.752 167.181 218.087 166.351 216.779L190.411 194.777C191.359 195.61 192.425 196.086 193.611 196.442V180.982C192.425 181.22 191.359 181.814 190.411 182.528L176.899 169.922C177.848 168.614 178.44 166.949 178.44 165.284C178.44 163.381 177.729 161.597 176.662 160.289L190.885 145.304C191.714 145.899 192.662 146.375 193.611 146.612V131.152C192.07 131.509 190.766 132.341 189.699 133.412L176.307 123.66C176.899 122.47 177.255 121.281 177.255 119.854C177.255 118.189 176.781 116.643 175.833 115.335L190.292 102.253C191.24 103.086 192.307 103.68 193.492 103.918V88.2198C192.899 88.3387 192.307 88.5766 191.714 88.9334C185.788 80.0139 175.714 74.0676 164.218 74.0676C146.796 74.0676 132.455 87.7441 131.388 105.107C128.07 106.059 125.581 109.151 125.581 112.837C125.581 113.313 125.581 113.67 125.699 114.027C117.166 118.903 111.596 127.941 111.596 138.288C111.596 140.309 111.833 142.331 112.188 144.234C109.581 145.542 107.803 148.277 107.803 151.369C107.803 153.986 109.107 156.364 111.003 157.791C107.803 163.262 106.025 169.446 106.025 175.987C106.025 184.55 109.107 192.756 114.559 199.178C113.492 200.486 112.899 202.27 112.899 204.054C112.899 207.502 115.033 210.357 117.996 211.546C117.877 212.735 117.759 213.924 117.759 215.114C117.759 224.985 123.211 233.547 131.507 237.947C131.507 238.304 131.388 238.661 131.388 239.018C131.388 243.418 134.944 246.986 139.329 246.986C140.277 246.986 141.225 246.867 142.055 246.51C147.27 255.43 156.87 261.138 167.418 261.138C176.781 261.138 185.196 256.738 190.529 249.84C191.359 250.435 192.188 250.791 193.137 251.029V234.618H193.611ZM189.107 184.193C188.159 185.501 187.566 187.166 187.566 188.831C187.566 190.496 188.159 192.161 188.988 193.469L164.929 215.47C164.099 214.757 163.151 214.281 162.085 213.924L170.262 173.252C172.159 173.252 173.937 172.538 175.359 171.468L189.107 184.193ZM126.055 197.632L134.233 183.123C135.181 183.479 136.129 183.717 137.314 183.717C138.262 183.717 139.092 183.598 139.922 183.242L155.448 214.757C154.499 215.352 153.67 216.184 153.077 217.254L128.899 206.313C129.137 205.6 129.255 204.767 129.255 203.935C129.255 201.437 127.951 199.059 126.055 197.632ZM124.04 150.418L140.396 146.256C141.581 149.229 144.425 151.369 147.862 151.369C149.759 151.369 151.418 150.656 152.84 149.586L164.099 160.527C163.151 161.835 162.559 163.5 162.559 165.284C162.559 165.759 162.559 166.235 162.677 166.711L144.662 172.419C143.359 169.684 140.633 167.781 137.433 167.781C135.774 167.781 134.233 168.257 133.048 169.089L122.262 156.602C123.566 155.175 124.277 153.391 124.277 151.25C124.04 151.013 124.04 150.656 124.04 150.418ZM145.374 135.671L138.025 119.497C139.448 118.665 140.514 117.357 141.107 115.811L161.255 119.735C161.255 121.638 161.966 123.422 163.151 124.849L152.248 136.742C150.944 135.79 149.403 135.314 147.625 135.314C146.914 135.314 146.203 135.433 145.374 135.671ZM141.699 182.409C143.833 180.982 145.255 178.484 145.255 175.749C145.255 175.274 145.255 174.798 145.137 174.322L163.151 168.614C164.099 170.754 165.996 172.3 168.248 172.895L160.07 213.449C159.951 213.449 159.833 213.449 159.714 213.449C158.766 213.449 157.936 213.568 157.107 213.924L141.699 182.409ZM188.514 134.958C187.922 136.147 187.566 137.336 187.566 138.763C187.566 140.666 188.277 142.45 189.344 143.758L175.122 158.743C173.818 157.791 172.159 157.197 170.381 157.197C168.485 157.197 166.825 157.91 165.403 158.981L154.144 148.04C155.092 146.731 155.685 145.066 155.685 143.282C155.685 141.38 154.974 139.477 153.788 138.169L164.692 126.276C165.996 127.227 167.536 127.703 169.314 127.703C171.566 127.703 173.699 126.752 175.122 125.206L188.514 134.958ZM174.529 113.67C173.107 112.481 171.329 111.767 169.314 111.767C165.64 111.767 162.44 114.265 161.611 117.713L141.699 113.789C141.699 113.432 141.818 113.075 141.818 112.719C141.818 112.362 141.818 112.005 141.699 111.648L188.159 99.0421C188.396 99.5178 188.633 100.112 188.988 100.588L174.529 113.67ZM164.455 77.5165C174.885 77.5165 184.011 82.9871 189.225 91.1929C188.159 92.5011 187.566 94.1661 187.566 96.0689C187.566 96.4257 187.566 96.7825 187.685 97.1392L141.225 109.626C140.159 107.129 137.907 105.226 135.181 104.75C136.248 89.528 148.929 77.5165 164.455 77.5165ZM127.24 117.238C128.662 119.378 131.151 120.805 133.877 120.805C134.707 120.805 135.537 120.687 136.248 120.449L143.596 136.623C141.344 138.05 139.803 140.547 139.803 143.401C139.803 143.758 139.803 143.996 139.803 144.353L123.448 148.515C122.262 145.542 119.418 143.401 115.981 143.401C115.862 143.401 115.862 143.401 115.744 143.401C115.388 141.736 115.27 140.071 115.27 138.288C115.27 129.368 120.011 121.519 127.24 117.238ZM117.64 196.918C112.662 191.091 109.818 183.717 109.818 175.868C109.818 169.922 111.477 164.094 114.44 159.1C114.914 159.219 115.507 159.219 115.981 159.219C117.64 159.219 119.181 158.743 120.366 157.91L131.151 170.398C129.848 171.825 129.137 173.609 129.137 175.749C129.137 178.366 130.44 180.625 132.336 182.171L124.159 196.68C123.211 196.323 122.262 196.086 121.077 196.086C119.892 195.967 118.707 196.323 117.64 196.918ZM139.803 230.812C136.959 230.812 134.47 232.239 133.048 234.499C126.174 230.693 121.551 223.32 121.551 214.995C121.551 213.924 121.67 212.973 121.788 212.022C124.396 211.784 126.766 210.357 128.07 208.216L152.248 219.157C152.011 219.871 151.892 220.703 151.892 221.536C151.892 223.201 152.366 224.628 153.196 225.936L145.137 232.834C143.714 231.644 141.818 230.812 139.803 230.812ZM167.892 257.57C158.529 257.57 149.996 252.456 145.374 244.607C146.796 243.18 147.744 241.158 147.744 238.899C147.744 237.234 147.27 235.807 146.44 234.499L154.499 227.601C155.922 228.909 157.818 229.623 159.833 229.623C162.322 229.623 164.574 228.433 166.114 226.649L188.277 240.088C187.803 241.04 187.566 242.11 187.566 243.299C187.566 244.726 187.922 246.153 188.633 247.343C183.892 253.408 176.307 257.57 167.892 257.57Z" fill="#681F9D"/>
<path d="M284.751 175.868C284.751 169.446 282.974 163.143 279.774 157.673C281.788 156.245 282.974 153.867 282.974 151.251C282.974 148.158 281.196 145.423 278.588 144.115C279.062 142.212 279.181 140.19 279.181 138.169C279.181 127.822 273.729 118.784 265.077 113.908C265.196 113.551 265.196 113.075 265.196 112.719C265.196 109.032 262.707 105.94 259.388 104.988C258.322 87.7441 244.099 73.9487 226.559 73.9487C215.062 73.9487 204.988 79.895 199.062 88.8145C198.47 88.5766 197.877 88.3387 197.285 88.1009V250.673C198.233 250.435 199.181 250.078 199.892 249.483C199.892 249.602 200.011 249.602 200.129 249.721V131.033L205.937 124.849C205.344 123.898 205.107 122.708 205.107 121.519C205.107 117.832 208.07 114.859 211.744 114.859C215.418 114.859 218.381 117.832 218.381 121.519C218.381 125.206 215.418 128.179 211.744 128.179C210.677 128.179 209.611 127.941 208.781 127.465L203.922 132.579V146.731L225.848 124.73V116.524C223.122 115.692 221.107 113.194 221.107 110.102C221.107 106.415 224.07 103.442 227.744 103.442C231.418 103.442 234.381 106.415 234.381 110.102C234.381 113.075 232.366 115.692 229.64 116.524V126.276L203.922 152.083V182.409L219.448 166.83V156.84C216.722 156.008 214.707 153.51 214.707 150.418C214.707 146.731 217.67 143.758 221.344 143.758C225.018 143.758 227.981 146.731 227.981 150.418C227.981 153.391 225.966 156.008 223.24 156.84V163.262L234.025 152.44C233.551 151.488 233.196 150.418 233.196 149.229C233.196 145.542 236.159 142.569 239.833 142.569C243.507 142.569 246.47 145.542 246.47 149.229C246.47 152.915 243.507 155.889 239.833 155.889C238.648 155.889 237.581 155.651 236.633 155.056L223.477 168.733V184.55L204.159 203.935V220.703L236.277 188.474V171.111L250.737 156.602C250.144 155.651 249.907 154.462 249.907 153.272C249.907 149.586 252.87 146.612 256.544 146.612C260.218 146.612 263.181 149.586 263.181 153.272C263.181 156.959 260.218 159.932 256.544 159.932C255.477 159.932 254.411 159.694 253.462 159.219L240.07 172.657V190.02L204.04 226.174V233.547L254.411 183.004V177.652C251.685 176.82 249.67 174.322 249.67 171.23C249.67 167.543 252.633 164.57 256.307 164.57C259.981 164.57 262.944 167.543 262.944 171.23C262.944 174.203 260.929 176.82 258.203 177.652V184.55L233.907 208.93H246.825L263.181 192.518C262.588 191.566 262.233 190.377 262.233 189.069C262.233 185.382 265.196 182.409 268.87 182.409C272.544 182.409 275.507 185.382 275.507 189.069C275.507 192.756 272.544 195.729 268.87 195.729C267.803 195.729 266.855 195.491 266.025 195.015L248.366 212.735H229.996L203.922 238.899V253.765C209.018 258.165 215.774 260.9 223.003 260.9C233.67 260.9 243.27 255.192 248.366 246.272C249.196 246.629 250.144 246.748 251.092 246.748C255.477 246.748 259.033 243.18 259.033 238.78C259.033 238.423 259.033 238.066 258.914 237.71C267.092 233.428 272.662 224.747 272.662 214.876C272.662 213.687 272.544 212.497 272.425 211.308C275.388 210.119 277.522 207.265 277.522 203.816C277.522 201.913 276.929 200.248 275.862 198.94C281.551 192.756 284.751 184.55 284.751 175.868Z" fill="#D33607"/>
<path d="M585 277.288V266.328H639.366L636.014 277.288H616.574V317.871H604.172V277.288H585Z" fill="#681F9D"/>
<path d="M687.027 297.413V266.328H699.429V297.413C699.429 312.424 687.027 319 671.006 319C655.453 319 643.454 311.959 643.454 297.413V268.321L655.856 265V297.413C655.856 304.985 660.95 307.841 671.609 307.841C681.932 307.841 687.027 304.786 687.027 297.413Z" fill="#681F9D"/>
<path d="M707.776 284.86L720.178 281.539V290.638H742.367C746.121 290.638 748.065 287.251 748.065 283.863C748.065 280.542 746.188 277.288 742.367 277.288H707.776L711.128 266.328H742.501C754.701 266.328 761.137 275.494 761.137 284.461C761.137 291.236 757.45 298.011 749.74 300.535L762.678 317.871H748.065L736.736 301.598H720.178V317.871H707.776V284.86Z" fill="#681F9D"/>
<path d="M801.786 266.328H818.88L790.725 291.502L820.221 317.871H801.786L780.603 298.21V317.871H768.201V268.321L780.603 265V286.055L801.786 266.328Z" fill="#681F9D"/>
<path d="M837.819 297.613V306.911H875.761L872.409 317.871H825.417V266.328H875.761L872.409 277.288H837.819V286.653H870.063V297.613H837.819Z" fill="#681F9D"/>
<path d="M914.594 300.336V317.871H902.192V300.07L876.987 266.328H891.399L908.493 290.506L925.587 266.328H940L914.594 300.336Z" fill="#681F9D"/>
<path d="M715.674 252.813C724.326 238.304 732.741 224.271 741.393 209.762C739.733 209.762 738.667 209.762 737.719 209.762C708.919 209.762 680.119 209.643 651.319 209.762C648.83 209.762 647.526 208.93 646.459 206.67C643.259 199.891 639.822 193.231 636.148 185.739C638.044 185.739 639.467 185.739 640.889 185.739C677.867 185.739 714.963 185.62 751.941 185.739C754.785 185.739 756.326 185.025 757.748 182.528C776.356 151.369 794.963 120.211 813.689 89.0523C818.43 81.0843 825.659 78.1111 833.126 80.9653C837.393 82.5114 839.882 85.9602 842.133 89.7659C854.696 110.697 867.259 131.628 879.822 152.559C899.259 184.907 918.578 217.254 938.015 249.602C938.607 250.435 938.963 251.386 939.674 252.694C938.489 252.813 937.778 252.932 936.948 252.932C926.993 252.932 917.037 252.813 907.081 253.051C904.83 253.051 903.644 252.219 902.578 250.435C895.23 237.829 887.644 225.341 880.296 212.735C879.23 210.832 877.926 210.119 875.793 210.119C843.2 210.119 810.489 210.119 777.896 210C775.763 210 774.459 210.713 773.274 212.616C765.926 225.341 758.341 237.947 750.993 250.554C749.926 252.337 748.859 253.051 746.726 253.051C736.652 252.694 726.578 252.813 715.674 252.813ZM864.415 185.501C851.733 164.213 839.407 143.401 826.726 121.995C814.163 143.401 801.837 164.213 789.274 185.501C814.519 185.501 839.17 185.501 864.415 185.501Z" fill="#D33607"/>
<path d="M505.541 254.002C493.689 254.002 482.667 254.121 471.763 253.884C470.578 253.884 468.919 252.694 468.207 251.505C460.622 239.018 453.274 226.531 445.926 213.924C444.622 211.665 443.2 210.713 440.356 210.713C415.704 210.832 391.17 210.832 366.519 210.832C365.57 210.832 364.622 210.832 363.081 210.832C364.978 207.621 366.519 204.886 368.178 202.151C370.667 197.751 373.393 193.469 375.644 189.069C376.711 187.047 378.015 186.453 380.148 186.453C395.2 186.572 410.37 186.453 425.422 186.453C426.607 186.453 427.793 186.453 429.57 186.453C416.77 164.927 404.326 143.996 391.526 122.352C387.615 128.892 384.178 134.839 380.622 140.785C359.052 177.414 337.363 214.043 315.911 250.791C314.489 253.289 312.948 254.121 310.104 254.121C300.267 253.884 290.43 254.002 280 254.002C280.711 252.694 281.067 251.743 281.541 250.91C313.659 197.275 345.778 143.52 378.015 89.8848C381.096 84.6521 385.126 80.6086 391.407 80.014C398.4 79.4194 403.141 83.225 406.578 88.8145C414.4 101.896 422.222 114.978 430.044 127.941C452.326 164.927 474.489 202.032 496.77 239.018C499.496 243.894 502.341 248.77 505.541 254.002Z" fill="#681F9D"/>
<path d="M585.304 82.5115C633.304 82.5115 681.185 82.5115 729.304 82.5115C729.304 87.9821 729.304 93.2148 729.304 98.4475C729.304 102.134 729.185 105.702 729.304 109.389C729.422 111.767 728.474 112.481 726.341 112.243C725.985 112.243 725.748 112.243 725.393 112.243C689.6 112.243 653.926 112.243 618.133 112.243C617.067 112.243 616 112.243 614.578 112.243C614.578 159.219 614.578 205.838 614.578 252.694C604.622 252.694 595.022 252.694 585.185 252.694C585.304 195.967 585.304 139.358 585.304 82.5115Z" fill="#D33607"/>
<path d="M553.659 252.694C543.822 252.694 534.222 252.694 524.385 252.694C524.385 209.167 524.385 165.641 524.385 122.114C534.104 122.114 543.704 122.114 553.659 122.114C553.659 165.522 553.659 208.93 553.659 252.694Z" fill="#681F9D"/>
<path d="M539.081 109.507C547.133 109.507 553.659 102.958 553.659 94.8796C553.659 86.8008 547.133 80.2517 539.081 80.2517C531.03 80.2517 524.504 86.8008 524.504 94.8796C524.504 102.958 531.03 109.507 539.081 109.507Z" fill="#D33607"/>
<path fill-rule="evenodd" clip-rule="evenodd" d="M103.181 104.394C98.4401 111.173 97.6105 116.881 101.048 121.4C101.048 121.4 89.1957 132.341 65.492 154.105C58.2623 161.716 62.529 169.327 78.292 176.701C75.9216 178.841 74.1438 182.647 72.9586 188.118C68.0994 191.566 68.4549 196.086 74.2623 201.675C69.2846 204.41 67.5068 207.384 68.8105 210.357C74.0253 216.184 73.3142 224.271 66.6772 234.618C58.9735 246.748 64.3068 255.311 82.6772 260.425C113.492 264.587 133.048 283.258 141.581 316.32C72.2475 309.065 15.8327 256.976 2.79567 188.237C-10.2414 119.497 23.1809 50.2826 85.0475 17.9347C146.914 -14.4131 222.529 -2.16374 271.24 47.904C208.899 24.4756 138.855 48.023 103.181 104.394Z" fill="#681F9D"/>
<path d="M193.028 345.313L187.233 380.222H179.852L185.648 345.313H193.028ZM202.987 365.086L200.464 380.222H193.22L197.584 354.041H204.487L203.737 358.66H204.027C204.857 357.126 206.027 355.916 207.538 355.029C209.061 354.143 210.794 353.7 212.737 353.7C214.555 353.7 216.072 354.097 217.288 354.893C218.516 355.688 219.379 356.819 219.879 358.285C220.391 359.751 220.476 361.507 220.135 363.552L217.339 380.222H210.078L212.652 364.847C212.913 363.245 212.709 361.995 212.038 361.097C211.379 360.188 210.317 359.734 208.851 359.734C207.874 359.734 206.976 359.944 206.158 360.364C205.339 360.785 204.652 361.399 204.095 362.205C203.55 363.001 203.18 363.961 202.987 365.086ZM247.898 361.507L241.301 361.916C241.267 361.336 241.108 360.819 240.824 360.364C240.551 359.899 240.148 359.529 239.614 359.257C239.091 358.984 238.432 358.847 237.636 358.847C236.443 358.847 235.381 359.12 234.449 359.666C233.517 360.211 232.989 360.91 232.864 361.762C232.761 362.308 232.903 362.768 233.29 363.143C233.676 363.518 234.455 363.836 235.625 364.097L240.227 365.052C242.682 365.575 244.455 366.444 245.545 367.66C246.648 368.876 247.04 370.467 246.722 372.433C246.438 374.103 245.705 375.563 244.523 376.813C243.341 378.052 241.841 379.018 240.023 379.711C238.205 380.393 236.188 380.734 233.972 380.734C230.415 380.734 227.71 380.007 225.858 378.552C224.006 377.097 223.114 375.126 223.182 372.637L230.273 372.262C230.33 373.33 230.705 374.137 231.398 374.683C232.091 375.217 233.04 375.489 234.244 375.501C235.597 375.524 236.744 375.245 237.688 374.666C238.642 374.075 239.182 373.359 239.307 372.518C239.398 371.927 239.227 371.45 238.795 371.086C238.375 370.722 237.602 370.421 236.477 370.183L232.114 369.279C229.636 368.768 227.858 367.853 226.778 366.535C225.699 365.217 225.33 363.541 225.67 361.507C225.943 359.882 226.619 358.489 227.699 357.33C228.79 356.16 230.193 355.262 231.909 354.637C233.636 354.012 235.585 353.7 237.756 353.7C241.153 353.7 243.71 354.399 245.426 355.796C247.153 357.194 247.977 359.097 247.898 361.507ZM248.396 390.041L254.43 354.041H261.589L260.857 358.438H261.18C261.612 357.734 262.186 357.018 262.902 356.291C263.629 355.552 264.533 354.938 265.612 354.45C266.692 353.95 267.959 353.7 269.413 353.7C271.334 353.7 273.01 354.2 274.442 355.2C275.874 356.188 276.908 357.683 277.544 359.683C278.192 361.671 278.266 364.166 277.766 367.166C277.288 370.086 276.408 372.552 275.124 374.563C273.851 376.563 272.322 378.08 270.538 379.114C268.766 380.137 266.885 380.649 264.896 380.649C263.487 380.649 262.328 380.416 261.419 379.95C260.521 379.484 259.822 378.899 259.322 378.194C258.822 377.478 258.47 376.757 258.266 376.029H257.993L255.675 390.041H248.396ZM259.357 367.132C259.107 368.688 259.095 370.046 259.322 371.205C259.561 372.364 260.038 373.268 260.754 373.916C261.47 374.552 262.413 374.87 263.584 374.87C264.766 374.87 265.817 374.546 266.737 373.899C267.658 373.239 268.425 372.33 269.038 371.171C269.652 370.001 270.089 368.654 270.351 367.132C270.589 365.62 270.595 364.291 270.368 363.143C270.141 361.995 269.675 361.097 268.97 360.45C268.266 359.802 267.311 359.478 266.107 359.478C264.936 359.478 263.885 359.791 262.953 360.416C262.033 361.041 261.266 361.927 260.652 363.075C260.038 364.222 259.607 365.575 259.357 367.132ZM280.403 380.222L284.767 354.041H292.028L287.665 380.222H280.403ZM289.148 350.632C288.068 350.632 287.176 350.274 286.472 349.558C285.778 348.83 285.494 347.967 285.619 346.967C285.744 345.944 286.233 345.08 287.085 344.376C287.938 343.66 288.903 343.302 289.983 343.302C291.063 343.302 291.943 343.66 292.625 344.376C293.307 345.08 293.591 345.944 293.477 346.967C293.364 347.967 292.881 348.83 292.028 349.558C291.188 350.274 290.227 350.632 289.148 350.632ZM293.482 380.222L297.845 354.041H304.885L304.118 358.609H304.391C305.141 356.984 306.146 355.757 307.408 354.927C308.68 354.086 310.05 353.666 311.516 353.666C311.879 353.666 312.26 353.688 312.658 353.734C313.067 353.768 313.43 353.825 313.749 353.904L312.658 360.364C312.339 360.251 311.885 360.16 311.294 360.092C310.714 360.012 310.163 359.972 309.641 359.972C308.584 359.972 307.601 360.205 306.692 360.671C305.783 361.126 305.016 361.762 304.391 362.58C303.777 363.399 303.374 364.342 303.18 365.41L300.743 380.222H293.482ZM313.122 380.222L317.486 354.041H324.747L320.384 380.222H313.122ZM321.866 350.632C320.787 350.632 319.895 350.274 319.19 349.558C318.497 348.83 318.213 347.967 318.338 346.967C318.463 345.944 318.952 345.08 319.804 344.376C320.656 343.66 321.622 343.302 322.702 343.302C323.781 343.302 324.662 343.66 325.344 344.376C326.026 345.08 326.31 345.944 326.196 346.967C326.082 347.967 325.599 348.83 324.747 349.558C323.906 350.274 322.946 350.632 321.866 350.632ZM336.018 365.086L333.496 380.222H326.251L330.615 354.041H337.518L336.768 358.66H337.058C337.888 357.126 339.058 355.916 340.57 355.029C342.092 354.143 343.825 353.7 345.768 353.7C347.587 353.7 349.104 354.097 350.32 354.893C351.547 355.688 352.411 356.819 352.911 358.285C353.422 359.751 353.507 361.507 353.166 363.552L350.371 380.222H343.109L345.683 364.847C345.945 363.245 345.74 361.995 345.07 361.097C344.411 360.188 343.348 359.734 341.882 359.734C340.905 359.734 340.007 359.944 339.189 360.364C338.371 360.785 337.683 361.399 337.126 362.205C336.581 363.001 336.212 363.961 336.018 365.086ZM366.219 390.586C363.855 390.586 361.884 390.262 360.304 389.614C358.736 388.978 357.543 388.109 356.724 387.007C355.918 385.904 355.474 384.666 355.395 383.291L362.281 382.387C362.406 382.921 362.645 383.416 362.997 383.87C363.361 384.325 363.878 384.688 364.548 384.961C365.23 385.234 366.111 385.37 367.19 385.37C368.77 385.37 370.145 384.984 371.315 384.211C372.486 383.45 373.207 382.171 373.48 380.376L374.264 375.586H373.957C373.526 376.313 372.935 377.001 372.185 377.649C371.446 378.296 370.543 378.825 369.474 379.234C368.418 379.643 367.196 379.847 365.81 379.847C363.832 379.847 362.116 379.393 360.662 378.484C359.219 377.563 358.173 376.16 357.526 374.274C356.889 372.376 356.81 369.978 357.287 367.08C357.787 364.114 358.685 361.637 359.98 359.649C361.276 357.66 362.81 356.171 364.582 355.183C366.355 354.194 368.202 353.7 370.122 353.7C371.588 353.7 372.77 353.95 373.668 354.45C374.577 354.938 375.276 355.552 375.764 356.291C376.253 357.018 376.599 357.734 376.804 358.438H377.094L377.81 354.041H385.02L380.622 380.478C380.27 382.717 379.423 384.58 378.082 386.069C376.753 387.569 375.065 388.694 373.02 389.444C370.974 390.205 368.707 390.586 366.219 390.586ZM368.946 374.393C370.105 374.393 371.145 374.103 372.065 373.524C372.997 372.933 373.776 372.092 374.401 371.001C375.026 369.899 375.463 368.58 375.713 367.046C375.963 365.512 375.957 364.183 375.696 363.058C375.446 361.921 374.957 361.041 374.23 360.416C373.514 359.791 372.571 359.478 371.401 359.478C370.196 359.478 369.139 359.802 368.23 360.45C367.321 361.086 366.565 361.972 365.963 363.109C365.372 364.245 364.957 365.558 364.719 367.046C364.469 368.558 364.457 369.864 364.685 370.967C364.923 372.058 365.395 372.904 366.099 373.507C366.804 374.097 367.753 374.393 368.946 374.393ZM415.834 354.041L414.93 359.495H399.146L400.067 354.041H415.834ZM404.669 347.768H411.93L407.874 372.177C407.76 372.847 407.777 373.37 407.925 373.745C408.072 374.109 408.317 374.364 408.658 374.512C409.01 374.66 409.43 374.734 409.919 374.734C410.26 374.734 410.607 374.705 410.959 374.649C411.311 374.58 411.578 374.529 411.76 374.495L412.033 379.899C411.624 380.024 411.072 380.16 410.379 380.308C409.697 380.455 408.891 380.546 407.959 380.58C406.186 380.649 404.686 380.416 403.459 379.882C402.232 379.336 401.351 378.501 400.817 377.376C400.283 376.251 400.169 374.836 400.476 373.132L404.669 347.768ZM426.581 365.086L424.058 380.222H416.814L422.609 345.313H429.649L427.467 358.66H427.757C428.598 357.114 429.751 355.904 431.217 355.029C432.683 354.143 434.416 353.7 436.416 353.7C438.234 353.7 439.751 354.097 440.967 354.893C442.195 355.677 443.064 356.808 443.575 358.285C444.087 359.751 444.172 361.507 443.831 363.552L441.036 380.222H433.791L436.348 364.847C436.609 363.234 436.399 361.978 435.717 361.08C435.047 360.183 433.979 359.734 432.513 359.734C431.524 359.734 430.615 359.944 429.786 360.364C428.956 360.785 428.257 361.399 427.689 362.205C427.132 363.001 426.763 363.961 426.581 365.086ZM458.58 380.734C455.898 380.734 453.676 380.188 451.915 379.097C450.153 377.995 448.915 376.438 448.199 374.427C447.494 372.404 447.375 370.012 447.841 367.251C448.295 364.558 449.21 362.194 450.585 360.16C451.972 358.126 453.71 356.541 455.801 355.404C457.892 354.268 460.222 353.7 462.79 353.7C464.517 353.7 466.08 353.978 467.477 354.535C468.886 355.08 470.057 355.91 470.989 357.024C471.92 358.126 472.557 359.507 472.898 361.166C473.25 362.825 473.244 364.768 472.881 366.995L472.557 368.989H450.466L451.165 364.489H466.438C466.608 363.444 466.54 362.518 466.233 361.711C465.926 360.904 465.415 360.274 464.699 359.819C463.983 359.353 463.102 359.12 462.057 359.12C460.989 359.12 459.989 359.382 459.057 359.904C458.125 360.427 457.341 361.114 456.705 361.967C456.08 362.808 455.676 363.722 455.494 364.711L454.693 369.177C454.466 370.552 454.511 371.694 454.83 372.603C455.159 373.512 455.727 374.194 456.534 374.649C457.341 375.092 458.364 375.313 459.602 375.313C460.409 375.313 461.165 375.2 461.869 374.972C462.585 374.745 463.222 374.41 463.778 373.967C464.335 373.512 464.79 372.95 465.142 372.279L471.773 372.722C471.159 374.336 470.227 375.745 468.977 376.95C467.727 378.143 466.222 379.075 464.46 379.745C462.71 380.404 460.75 380.734 458.58 380.734ZM499.872 345.313L494.077 380.222H486.696L492.491 345.313H499.872ZM509.831 365.086L507.308 380.222H500.064L504.428 354.041H511.331L510.581 358.66H510.871C511.7 357.126 512.871 355.916 514.382 355.029C515.905 354.143 517.638 353.7 519.581 353.7C521.399 353.7 522.916 354.097 524.132 354.893C525.359 355.688 526.223 356.819 526.723 358.285C527.234 359.751 527.32 361.507 526.979 363.552L524.183 380.222H516.922L519.496 364.847C519.757 363.245 519.553 361.995 518.882 361.097C518.223 360.188 517.161 359.734 515.695 359.734C514.717 359.734 513.82 359.944 513.001 360.364C512.183 360.785 511.496 361.399 510.939 362.205C510.393 363.001 510.024 363.961 509.831 365.086ZM548.162 354.041L547.259 359.495H531.474L532.395 354.041H548.162ZM536.997 347.768H544.259L540.202 372.177C540.088 372.847 540.105 373.37 540.253 373.745C540.401 374.109 540.645 374.364 540.986 374.512C541.338 374.66 541.759 374.734 542.247 374.734C542.588 374.734 542.935 374.705 543.287 374.649C543.639 374.58 543.906 374.529 544.088 374.495L544.361 379.899C543.952 380.024 543.401 380.16 542.707 380.308C542.026 380.455 541.219 380.546 540.287 380.58C538.514 380.649 537.014 380.416 535.787 379.882C534.56 379.336 533.679 378.501 533.145 377.376C532.611 376.251 532.497 374.836 532.804 373.132L536.997 347.768ZM560.111 380.734C557.429 380.734 555.207 380.188 553.446 379.097C551.685 377.995 550.446 376.438 549.73 374.427C549.026 372.404 548.906 370.012 549.372 367.251C549.827 364.558 550.741 362.194 552.116 360.16C553.503 358.126 555.241 356.541 557.332 355.404C559.423 354.268 561.753 353.7 564.321 353.7C566.048 353.7 567.611 353.978 569.009 354.535C570.418 355.08 571.588 355.91 572.52 357.024C573.452 358.126 574.088 359.507 574.429 361.166C574.781 362.825 574.776 364.768 574.412 366.995L574.088 368.989H551.997L552.696 364.489H567.969C568.139 363.444 568.071 362.518 567.764 361.711C567.457 360.904 566.946 360.274 566.23 359.819C565.514 359.353 564.634 359.12 563.588 359.12C562.52 359.12 561.52 359.382 560.588 359.904C559.656 360.427 558.872 361.114 558.236 361.967C557.611 362.808 557.207 363.722 557.026 364.711L556.224 369.177C555.997 370.552 556.043 371.694 556.361 372.603C556.69 373.512 557.259 374.194 558.065 374.649C558.872 375.092 559.895 375.313 561.134 375.313C561.94 375.313 562.696 375.2 563.401 374.972C564.116 374.745 564.753 374.41 565.31 373.967C565.866 373.512 566.321 372.95 566.673 372.279L573.304 372.722C572.69 374.336 571.759 375.745 570.509 376.95C569.259 378.143 567.753 379.075 565.991 379.745C564.241 380.404 562.281 380.734 560.111 380.734ZM590.038 345.313L584.243 380.222H576.982L582.777 345.313H590.038ZM603.116 345.313L597.321 380.222H590.06L595.855 345.313H603.116ZM603.138 380.222L607.501 354.041H614.763L610.399 380.222H603.138ZM611.882 350.632C610.803 350.632 609.911 350.274 609.206 349.558C608.513 348.83 608.229 347.967 608.354 346.967C608.479 345.944 608.967 345.08 609.82 344.376C610.672 343.66 611.638 343.302 612.717 343.302C613.797 343.302 614.678 343.66 615.359 344.376C616.041 345.08 616.325 345.944 616.212 346.967C616.098 347.967 615.615 348.83 614.763 349.558C613.922 350.274 612.962 350.632 611.882 350.632ZM626.375 390.586C624.011 390.586 622.04 390.262 620.46 389.614C618.892 388.978 617.699 388.109 616.881 387.007C616.074 385.904 615.631 384.666 615.551 383.291L622.438 382.387C622.562 382.921 622.801 383.416 623.153 383.87C623.517 384.325 624.034 384.688 624.705 384.961C625.386 385.234 626.267 385.37 627.347 385.37C628.926 385.37 630.301 384.984 631.472 384.211C632.642 383.45 633.364 382.171 633.636 380.376L634.42 375.586H634.114C633.682 376.313 633.091 377.001 632.341 377.649C631.602 378.296 630.699 378.825 629.631 379.234C628.574 379.643 627.352 379.847 625.966 379.847C623.989 379.847 622.273 379.393 620.818 378.484C619.375 377.563 618.33 376.16 617.682 374.274C617.045 372.376 616.966 369.978 617.443 367.08C617.943 364.114 618.841 361.637 620.136 359.649C621.432 357.66 622.966 356.171 624.739 355.183C626.511 354.194 628.358 353.7 630.278 353.7C631.744 353.7 632.926 353.95 633.824 354.45C634.733 354.938 635.432 355.552 635.92 356.291C636.409 357.018 636.756 357.734 636.96 358.438H637.25L637.966 354.041H645.176L640.778 380.478C640.426 382.717 639.58 384.58 638.239 386.069C636.909 387.569 635.222 388.694 633.176 389.444C631.131 390.205 628.864 390.586 626.375 390.586ZM629.102 374.393C630.261 374.393 631.301 374.103 632.222 373.524C633.153 372.933 633.932 372.092 634.557 371.001C635.182 369.899 635.619 368.58 635.869 367.046C636.119 365.512 636.114 364.183 635.852 363.058C635.602 361.921 635.114 361.041 634.386 360.416C633.67 359.791 632.727 359.478 631.557 359.478C630.352 359.478 629.295 359.802 628.386 360.45C627.477 361.086 626.722 361.972 626.119 363.109C625.528 364.245 625.114 365.558 624.875 367.046C624.625 368.558 624.614 369.864 624.841 370.967C625.08 372.058 625.551 372.904 626.256 373.507C626.96 374.097 627.909 374.393 629.102 374.393ZM658.455 380.734C655.773 380.734 653.551 380.188 651.79 379.097C650.028 377.995 648.79 376.438 648.074 374.427C647.369 372.404 647.25 370.012 647.716 367.251C648.17 364.558 649.085 362.194 650.46 360.16C651.847 358.126 653.585 356.541 655.676 355.404C657.767 354.268 660.097 353.7 662.665 353.7C664.392 353.7 665.955 353.978 667.352 354.535C668.761 355.08 669.932 355.91 670.864 357.024C671.795 358.126 672.432 359.507 672.773 361.166C673.125 362.825 673.119 364.768 672.756 366.995L672.432 368.989H650.341L651.04 364.489H666.312C666.483 363.444 666.415 362.518 666.108 361.711C665.801 360.904 665.29 360.274 664.574 359.819C663.858 359.353 662.977 359.12 661.932 359.12C660.864 359.12 659.864 359.382 658.932 359.904C658 360.427 657.216 361.114 656.58 361.967C655.955 362.808 655.551 363.722 655.369 364.711L654.568 369.177C654.341 370.552 654.386 371.694 654.705 372.603C655.034 373.512 655.602 374.194 656.409 374.649C657.216 375.092 658.239 375.313 659.477 375.313C660.284 375.313 661.04 375.2 661.744 374.972C662.46 374.745 663.097 374.41 663.653 373.967C664.21 373.512 664.665 372.95 665.017 372.279L671.648 372.722C671.034 374.336 670.102 375.745 668.852 376.95C667.602 378.143 666.097 379.075 664.335 379.745C662.585 380.404 660.625 380.734 658.455 380.734ZM685.143 365.086L682.621 380.222H675.376L679.74 354.041H686.643L685.893 358.66H686.183C687.013 357.126 688.183 355.916 689.695 355.029C691.217 354.143 692.95 353.7 694.893 353.7C696.712 353.7 698.229 354.097 699.445 354.893C700.672 355.688 701.536 356.819 702.036 358.285C702.547 359.751 702.632 361.507 702.291 363.552L699.496 380.222H692.234L694.808 364.847C695.07 363.245 694.865 361.995 694.195 361.097C693.536 360.188 692.473 359.734 691.007 359.734C690.03 359.734 689.132 359.944 688.314 360.364C687.496 360.785 686.808 361.399 686.251 362.205C685.706 363.001 685.337 363.961 685.143 365.086ZM716.946 380.734C714.253 380.734 712.037 380.166 710.298 379.029C708.571 377.882 707.361 376.291 706.668 374.257C705.986 372.222 705.866 369.882 706.31 367.234C706.741 364.552 707.645 362.2 709.02 360.177C710.395 358.143 712.139 356.558 714.253 355.421C716.378 354.274 718.764 353.7 721.412 353.7C723.696 353.7 725.628 354.114 727.207 354.944C728.787 355.774 729.946 356.938 730.685 358.438C731.423 359.938 731.673 361.7 731.435 363.722H724.599C724.611 362.427 724.276 361.376 723.594 360.569C722.912 359.762 721.912 359.359 720.594 359.359C719.457 359.359 718.412 359.666 717.457 360.279C716.514 360.882 715.713 361.762 715.054 362.921C714.406 364.08 713.952 365.484 713.69 367.132C713.418 368.802 713.412 370.222 713.673 371.393C713.935 372.563 714.435 373.455 715.173 374.069C715.912 374.683 716.844 374.989 717.969 374.989C718.81 374.989 719.588 374.819 720.304 374.478C721.031 374.137 721.668 373.643 722.213 372.995C722.759 372.336 723.179 371.546 723.474 370.626H730.327C729.861 372.637 729.014 374.399 727.787 375.91C726.571 377.421 725.043 378.603 723.202 379.455C721.361 380.308 719.276 380.734 716.946 380.734ZM745.22 380.734C742.538 380.734 740.317 380.188 738.555 379.097C736.794 377.995 735.555 376.438 734.839 374.427C734.135 372.404 734.016 370.012 734.482 367.251C734.936 364.558 735.851 362.194 737.226 360.16C738.612 358.126 740.351 356.541 742.442 355.404C744.533 354.268 746.862 353.7 749.43 353.7C751.158 353.7 752.72 353.978 754.118 354.535C755.527 355.08 756.697 355.91 757.629 357.024C758.561 358.126 759.197 359.507 759.538 361.166C759.891 362.825 759.885 364.768 759.521 366.995L759.197 368.989H737.107L737.805 364.489H753.078C753.249 363.444 753.18 362.518 752.874 361.711C752.567 360.904 752.055 360.274 751.339 359.819C750.624 359.353 749.743 359.12 748.697 359.12C747.629 359.12 746.629 359.382 745.697 359.904C744.766 360.427 743.982 361.114 743.345 361.967C742.72 362.808 742.317 363.722 742.135 364.711L741.334 369.177C741.107 370.552 741.152 371.694 741.47 372.603C741.8 373.512 742.368 374.194 743.175 374.649C743.982 375.092 745.004 375.313 746.243 375.313C747.05 375.313 747.805 375.2 748.51 374.972C749.226 374.745 749.862 374.41 750.419 373.967C750.976 373.512 751.43 372.95 751.783 372.279L758.413 372.722C757.8 374.336 756.868 375.745 755.618 376.95C754.368 378.143 752.862 379.075 751.101 379.745C749.351 380.404 747.391 380.734 745.22 380.734Z" fill="#401261"/>
</svg>
