<svg width="940" height="319" viewBox="0 0 940 319" fill="none" xmlns="http://www.w3.org/2000/svg">
<path d="M204.159 188.118V198.464L219.566 182.885V172.657L204.159 188.118Z" fill="black"/>
<path d="M193.611 234.618C193.611 234.855 193.611 235.093 193.492 235.331C191.833 235.807 190.292 236.758 189.225 238.066L167.062 224.628C167.537 223.676 167.774 222.606 167.774 221.417C167.774 219.752 167.181 218.087 166.351 216.779L190.411 194.777C191.359 195.61 192.425 196.086 193.611 196.442V180.982C192.425 181.22 191.359 181.814 190.411 182.528L176.899 169.922C177.848 168.614 178.44 166.949 178.44 165.284C178.44 163.381 177.729 161.597 176.662 160.289L190.885 145.304C191.714 145.899 192.662 146.375 193.611 146.612V131.152C192.07 131.509 190.766 132.341 189.699 133.412L176.307 123.66C176.899 122.47 177.255 121.281 177.255 119.854C177.255 118.189 176.781 116.643 175.833 115.335L190.292 102.253C191.24 103.086 192.307 103.68 193.492 103.918V88.2198C192.899 88.3387 192.307 88.5766 191.714 88.9334C185.788 80.0139 175.714 74.0676 164.218 74.0676C146.796 74.0676 132.455 87.7441 131.388 105.107C128.07 106.059 125.581 109.151 125.581 112.837C125.581 113.313 125.581 113.67 125.699 114.027C117.166 118.903 111.596 127.941 111.596 138.288C111.596 140.309 111.833 142.331 112.188 144.234C109.581 145.542 107.803 148.277 107.803 151.369C107.803 153.986 109.107 156.364 111.003 157.791C107.803 163.262 106.025 169.446 106.025 175.987C106.025 184.55 109.107 192.756 114.559 199.178C113.492 200.486 112.899 202.27 112.899 204.054C112.899 207.502 115.033 210.357 117.996 211.546C117.877 212.735 117.759 213.924 117.759 215.114C117.759 224.985 123.211 233.547 131.507 237.947C131.507 238.304 131.388 238.661 131.388 239.018C131.388 243.418 134.944 246.986 139.329 246.986C140.277 246.986 141.225 246.867 142.055 246.51C147.27 255.43 156.87 261.138 167.418 261.138C176.781 261.138 185.196 256.738 190.529 249.84C191.359 250.435 192.188 250.791 193.137 251.029V234.618H193.611ZM189.107 184.193C188.159 185.501 187.566 187.166 187.566 188.831C187.566 190.496 188.159 192.161 188.988 193.469L164.929 215.47C164.099 214.757 163.151 214.281 162.085 213.924L170.262 173.252C172.159 173.252 173.937 172.538 175.359 171.468L189.107 184.193ZM126.055 197.632L134.233 183.123C135.181 183.479 136.129 183.717 137.314 183.717C138.262 183.717 139.092 183.598 139.922 183.242L155.448 214.757C154.499 215.352 153.67 216.184 153.077 217.254L128.899 206.313C129.137 205.6 129.255 204.767 129.255 203.935C129.255 201.437 127.951 199.059 126.055 197.632ZM124.04 150.418L140.396 146.256C141.581 149.229 144.425 151.369 147.862 151.369C149.759 151.369 151.418 150.656 152.84 149.586L164.099 160.527C163.151 161.835 162.559 163.5 162.559 165.284C162.559 165.759 162.559 166.235 162.677 166.711L144.662 172.419C143.359 169.684 140.633 167.781 137.433 167.781C135.774 167.781 134.233 168.257 133.048 169.089L122.262 156.602C123.566 155.175 124.277 153.391 124.277 151.25C124.04 151.013 124.04 150.656 124.04 150.418ZM145.374 135.671L138.025 119.497C139.448 118.665 140.514 117.357 141.107 115.811L161.255 119.735C161.255 121.638 161.966 123.422 163.151 124.849L152.248 136.742C150.944 135.79 149.403 135.314 147.625 135.314C146.914 135.314 146.203 135.433 145.374 135.671ZM141.699 182.409C143.833 180.982 145.255 178.484 145.255 175.749C145.255 175.274 145.255 174.798 145.137 174.322L163.151 168.614C164.099 170.754 165.996 172.3 168.248 172.895L160.07 213.449C159.951 213.449 159.833 213.449 159.714 213.449C158.766 213.449 157.936 213.568 157.107 213.924L141.699 182.409ZM188.514 134.958C187.922 136.147 187.566 137.336 187.566 138.763C187.566 140.666 188.277 142.45 189.344 143.758L175.122 158.743C173.818 157.791 172.159 157.197 170.381 157.197C168.485 157.197 166.825 157.91 165.403 158.981L154.144 148.04C155.092 146.731 155.685 145.066 155.685 143.282C155.685 141.38 154.974 139.477 153.788 138.169L164.692 126.276C165.996 127.227 167.536 127.703 169.314 127.703C171.566 127.703 173.699 126.752 175.122 125.206L188.514 134.958ZM174.529 113.67C173.107 112.481 171.329 111.767 169.314 111.767C165.64 111.767 162.44 114.265 161.611 117.713L141.699 113.789C141.699 113.432 141.818 113.075 141.818 112.719C141.818 112.362 141.818 112.005 141.699 111.648L188.159 99.0421C188.396 99.5178 188.633 100.112 188.988 100.588L174.529 113.67ZM164.455 77.5165C174.885 77.5165 184.011 82.9871 189.225 91.1929C188.159 92.5011 187.566 94.1661 187.566 96.0689C187.566 96.4257 187.566 96.7825 187.685 97.1392L141.225 109.626C140.159 107.129 137.907 105.226 135.181 104.75C136.248 89.528 148.929 77.5165 164.455 77.5165ZM127.24 117.238C128.662 119.378 131.151 120.805 133.877 120.805C134.707 120.805 135.537 120.687 136.248 120.449L143.596 136.623C141.344 138.05 139.803 140.547 139.803 143.401C139.803 143.758 139.803 143.996 139.803 144.353L123.448 148.515C122.262 145.542 119.418 143.401 115.981 143.401C115.862 143.401 115.862 143.401 115.744 143.401C115.388 141.736 115.27 140.071 115.27 138.288C115.27 129.368 120.011 121.519 127.24 117.238ZM117.64 196.918C112.662 191.091 109.818 183.717 109.818 175.868C109.818 169.922 111.477 164.094 114.44 159.1C114.914 159.219 115.507 159.219 115.981 159.219C117.64 159.219 119.181 158.743 120.366 157.91L131.151 170.398C129.848 171.825 129.137 173.609 129.137 175.749C129.137 178.366 130.44 180.625 132.336 182.171L124.159 196.68C123.211 196.323 122.262 196.086 121.077 196.086C119.892 195.967 118.707 196.323 117.64 196.918ZM139.803 230.812C136.959 230.812 134.47 232.239 133.048 234.499C126.174 230.693 121.551 223.32 121.551 214.995C121.551 213.924 121.67 212.973 121.788 212.022C124.396 211.784 126.766 210.357 128.07 208.216L152.248 219.157C152.011 219.871 151.892 220.703 151.892 221.536C151.892 223.201 152.366 224.628 153.196 225.936L145.137 232.834C143.714 231.644 141.818 230.812 139.803 230.812ZM167.892 257.57C158.529 257.57 149.996 252.456 145.374 244.607C146.796 243.18 147.744 241.158 147.744 238.899C147.744 237.234 147.27 235.807 146.44 234.499L154.499 227.601C155.922 228.909 157.818 229.623 159.833 229.623C162.322 229.623 164.574 228.433 166.114 226.649L188.277 240.088C187.803 241.04 187.566 242.11 187.566 243.299C187.566 244.726 187.922 246.153 188.633 247.343C183.892 253.408 176.307 257.57 167.892 257.57Z" fill="black"/>
<path d="M284.751 175.868C284.751 169.446 282.974 163.143 279.774 157.673C281.788 156.245 282.974 153.867 282.974 151.251C282.974 148.158 281.196 145.423 278.588 144.115C279.062 142.212 279.181 140.19 279.181 138.169C279.181 127.822 273.729 118.784 265.077 113.908C265.196 113.551 265.196 113.075 265.196 112.719C265.196 109.032 262.707 105.94 259.388 104.988C258.322 87.7441 244.099 73.9487 226.559 73.9487C215.062 73.9487 204.988 79.895 199.062 88.8145C198.47 88.5766 197.877 88.3387 197.285 88.1009V250.673C198.233 250.435 199.181 250.078 199.892 249.483C199.892 249.602 200.011 249.602 200.129 249.721V131.033L205.937 124.849C205.344 123.898 205.107 122.708 205.107 121.519C205.107 117.832 208.07 114.859 211.744 114.859C215.418 114.859 218.381 117.832 218.381 121.519C218.381 125.206 215.418 128.179 211.744 128.179C210.677 128.179 209.611 127.941 208.781 127.465L203.922 132.579V146.731L225.848 124.73V116.524C223.122 115.692 221.107 113.194 221.107 110.102C221.107 106.415 224.07 103.442 227.744 103.442C231.418 103.442 234.381 106.415 234.381 110.102C234.381 113.075 232.366 115.692 229.64 116.524V126.276L203.922 152.083V182.409L219.448 166.83V156.84C216.722 156.008 214.707 153.51 214.707 150.418C214.707 146.731 217.67 143.758 221.344 143.758C225.018 143.758 227.981 146.731 227.981 150.418C227.981 153.391 225.966 156.008 223.24 156.84V163.262L234.025 152.44C233.551 151.488 233.196 150.418 233.196 149.229C233.196 145.542 236.159 142.569 239.833 142.569C243.507 142.569 246.47 145.542 246.47 149.229C246.47 152.915 243.507 155.889 239.833 155.889C238.648 155.889 237.581 155.651 236.633 155.056L223.477 168.733V184.55L204.159 203.935V220.703L236.277 188.474V171.111L250.737 156.602C250.144 155.651 249.907 154.462 249.907 153.272C249.907 149.586 252.87 146.612 256.544 146.612C260.218 146.612 263.181 149.586 263.181 153.272C263.181 156.959 260.218 159.932 256.544 159.932C255.477 159.932 254.411 159.694 253.462 159.219L240.07 172.657V190.02L204.04 226.174V233.547L254.411 183.004V177.652C251.685 176.82 249.67 174.322 249.67 171.23C249.67 167.543 252.633 164.57 256.307 164.57C259.981 164.57 262.944 167.543 262.944 171.23C262.944 174.203 260.929 176.82 258.203 177.652V184.55L233.907 208.93H246.825L263.181 192.518C262.588 191.566 262.233 190.377 262.233 189.069C262.233 185.382 265.196 182.409 268.87 182.409C272.544 182.409 275.507 185.382 275.507 189.069C275.507 192.756 272.544 195.729 268.87 195.729C267.803 195.729 266.855 195.491 266.025 195.015L248.366 212.735H229.996L203.922 238.899V253.765C209.018 258.165 215.774 260.9 223.003 260.9C233.67 260.9 243.27 255.192 248.366 246.272C249.196 246.629 250.144 246.748 251.092 246.748C255.477 246.748 259.033 243.18 259.033 238.78C259.033 238.423 259.033 238.066 258.914 237.71C267.092 233.428 272.662 224.747 272.662 214.876C272.662 213.687 272.544 212.497 272.425 211.308C275.388 210.119 277.522 207.265 277.522 203.816C277.522 201.913 276.929 200.248 275.862 198.94C281.551 192.756 284.751 184.55 284.751 175.868Z" fill="black"/>
<path d="M585 277.288V266.328H639.366L636.014 277.288H616.574V317.871H604.172V277.288H585Z" fill="black"/>
<path d="M687.027 297.413V266.328H699.429V297.413C699.429 312.424 687.027 319 671.006 319C655.453 319 643.454 311.959 643.454 297.413V268.321L655.856 265V297.413C655.856 304.985 660.95 307.841 671.609 307.841C681.932 307.841 687.027 304.786 687.027 297.413Z" fill="black"/>
<path d="M707.776 284.86L720.178 281.539V290.638H742.367C746.121 290.638 748.065 287.251 748.065 283.863C748.065 280.542 746.188 277.288 742.367 277.288H707.776L711.128 266.328H742.501C754.701 266.328 761.137 275.494 761.137 284.461C761.137 291.236 757.45 298.011 749.74 300.535L762.678 317.871H748.065L736.736 301.598H720.178V317.871H707.776V284.86Z" fill="black"/>
<path d="M801.786 266.328H818.88L790.725 291.502L820.221 317.871H801.786L780.603 298.21V317.871H768.201V268.321L780.603 265V286.055L801.786 266.328Z" fill="black"/>
<path d="M837.819 297.613V306.911H875.761L872.409 317.871H825.417V266.328H875.761L872.409 277.288H837.819V286.653H870.063V297.613H837.819Z" fill="black"/>
<path d="M914.594 300.336V317.871H902.192V300.07L876.987 266.328H891.399L908.493 290.506L925.587 266.328H940L914.594 300.336Z" fill="black"/>
<path d="M715.674 252.813C724.326 238.304 732.741 224.271 741.393 209.762C739.733 209.762 738.667 209.762 737.719 209.762C708.919 209.762 680.119 209.643 651.319 209.762C648.83 209.762 647.526 208.93 646.459 206.67C643.259 199.891 639.822 193.231 636.148 185.739C638.044 185.739 639.467 185.739 640.889 185.739C677.867 185.739 714.963 185.62 751.941 185.739C754.785 185.739 756.326 185.025 757.748 182.528C776.356 151.369 794.963 120.211 813.689 89.0523C818.43 81.0843 825.659 78.1111 833.126 80.9653C837.393 82.5114 839.882 85.9602 842.133 89.7659C854.696 110.697 867.259 131.628 879.822 152.559C899.259 184.907 918.578 217.254 938.015 249.602C938.607 250.435 938.963 251.386 939.674 252.694C938.489 252.813 937.778 252.932 936.948 252.932C926.993 252.932 917.037 252.813 907.081 253.051C904.83 253.051 903.644 252.219 902.578 250.435C895.23 237.829 887.644 225.341 880.296 212.735C879.23 210.832 877.926 210.119 875.793 210.119C843.2 210.119 810.489 210.119 777.896 210C775.763 210 774.459 210.713 773.274 212.616C765.926 225.341 758.341 237.947 750.993 250.554C749.926 252.337 748.859 253.051 746.726 253.051C736.652 252.694 726.578 252.813 715.674 252.813ZM864.415 185.501C851.733 164.213 839.407 143.401 826.726 121.995C814.163 143.401 801.837 164.213 789.274 185.501C814.519 185.501 839.17 185.501 864.415 185.501Z" fill="black"/>
<path d="M505.541 254.002C493.689 254.002 482.667 254.121 471.763 253.884C470.578 253.884 468.919 252.694 468.207 251.505C460.622 239.018 453.274 226.531 445.926 213.924C444.622 211.665 443.2 210.713 440.356 210.713C415.704 210.832 391.17 210.832 366.519 210.832C365.57 210.832 364.622 210.832 363.081 210.832C364.978 207.621 366.519 204.886 368.178 202.151C370.667 197.751 373.393 193.469 375.644 189.069C376.711 187.047 378.015 186.453 380.148 186.453C395.2 186.572 410.37 186.453 425.422 186.453C426.607 186.453 427.793 186.453 429.57 186.453C416.77 164.927 404.326 143.996 391.526 122.352C387.615 128.892 384.178 134.839 380.622 140.785C359.052 177.414 337.363 214.043 315.911 250.791C314.489 253.289 312.948 254.121 310.104 254.121C300.267 253.884 290.43 254.002 280 254.002C280.711 252.694 281.067 251.743 281.541 250.91C313.659 197.275 345.778 143.52 378.015 89.8848C381.096 84.6521 385.126 80.6086 391.407 80.014C398.4 79.4194 403.141 83.225 406.578 88.8145C414.4 101.896 422.222 114.978 430.044 127.941C452.326 164.927 474.489 202.032 496.77 239.018C499.496 243.894 502.341 248.77 505.541 254.002Z" fill="black"/>
<path d="M585.304 82.5115C633.304 82.5115 681.185 82.5115 729.304 82.5115C729.304 87.9821 729.304 93.2148 729.304 98.4475C729.304 102.134 729.185 105.702 729.304 109.389C729.422 111.767 728.474 112.481 726.341 112.243C725.985 112.243 725.748 112.243 725.393 112.243C689.6 112.243 653.926 112.243 618.133 112.243C617.067 112.243 616 112.243 614.578 112.243C614.578 159.219 614.578 205.838 614.578 252.694C604.622 252.694 595.022 252.694 585.185 252.694C585.304 195.967 585.304 139.358 585.304 82.5115Z" fill="black"/>
<path d="M553.659 252.694C543.822 252.694 534.222 252.694 524.385 252.694C524.385 209.167 524.385 165.641 524.385 122.114C534.104 122.114 543.704 122.114 553.659 122.114C553.659 165.522 553.659 208.93 553.659 252.694Z" fill="black"/>
<path d="M539.081 109.507C547.133 109.507 553.659 102.958 553.659 94.8796C553.659 86.8008 547.133 80.2517 539.081 80.2517C531.03 80.2517 524.504 86.8008 524.504 94.8796C524.504 102.958 531.03 109.507 539.081 109.507Z" fill="black"/>
<path fill-rule="evenodd" clip-rule="evenodd" d="M103.181 104.394C98.4401 111.173 97.6105 116.881 101.048 121.4C101.048 121.4 89.1957 132.341 65.492 154.105C58.2623 161.716 62.529 169.327 78.292 176.701C75.9216 178.841 74.1438 182.647 72.9586 188.118C68.0994 191.566 68.4549 196.086 74.2623 201.675C69.2846 204.41 67.5068 207.384 68.8105 210.357C74.0253 216.184 73.3142 224.271 66.6772 234.618C58.9735 246.748 64.3068 255.311 82.6772 260.425C113.492 264.587 133.048 283.258 141.581 316.32C72.2475 309.065 15.8327 256.976 2.79567 188.237C-10.2414 119.497 23.1809 50.2826 85.0475 17.9347C146.914 -14.4131 222.529 -2.16374 271.24 47.904C208.899 24.4756 138.855 48.023 103.181 104.394Z" fill="black"/>
</svg>
